<svg width="20" height="20" viewBox="0 0 20 20" fill="none" stroke="currentColor" xmlns="http://www.w3.org/2000/svg">
<g clip-path="url(#clip0_1_7847)">
<path d="M13.5916 3.6533C13.0991 3.6533 12.8527 3.6533 12.6284 3.57006C12.5972 3.5585 12.5666 3.54578 12.5363 3.53192C12.3188 3.43215 12.1447 3.25801 11.7964 2.90975C10.9948 2.10816 10.5941 1.70737 10.1009 1.67041C10.0346 1.66545 9.96797 1.66545 9.90172 1.67041C9.40855 1.70737 9.00772 2.10816 8.20618 2.90974C7.85791 3.25801 7.68378 3.43215 7.46628 3.53192C7.43607 3.54578 7.40535 3.5585 7.37419 3.57006C7.14984 3.6533 6.90358 3.6533 6.41106 3.6533H6.32021C5.06362 3.6533 4.43533 3.6533 4.04496 4.04368C3.65459 4.43405 3.65459 5.06234 3.65459 6.31893V6.40978C3.65459 6.9023 3.65459 7.14856 3.57134 7.37291C3.55978 7.40407 3.54706 7.43479 3.5332 7.46499C3.43343 7.68249 3.25929 7.85663 2.91102 8.2049C2.10944 9.00644 1.70865 9.40727 1.67169 9.90044C1.66673 9.96669 1.66673 10.0334 1.67169 10.0996C1.70865 10.5928 2.10944 10.9935 2.91102 11.7951C3.25929 12.1434 3.43343 12.3175 3.5332 12.535C3.54706 12.5653 3.55978 12.5959 3.57134 12.6271C3.65459 12.8514 3.65459 13.0978 3.65459 13.5903V13.6811C3.65459 14.9377 3.65459 15.566 4.04496 15.9564C4.43533 16.3468 5.06362 16.3468 6.32021 16.3468H6.41106C6.90358 16.3468 7.14984 16.3468 7.37419 16.4299C7.40535 16.4415 7.43607 16.4543 7.46628 16.4681C7.68378 16.5679 7.85791 16.742 8.20618 17.0903C9.00772 17.8919 9.40855 18.2927 9.90172 18.3296C9.96797 18.3346 10.0346 18.3346 10.1009 18.3296C10.5941 18.2927 10.9948 17.8919 11.7964 17.0903C12.1447 16.742 12.3188 16.5679 12.5363 16.4681C12.5666 16.4543 12.5972 16.4415 12.6284 16.4299C12.8527 16.3468 13.0991 16.3468 13.5916 16.3468H13.6824C14.939 16.3468 15.5673 16.3468 15.9576 15.9564C16.3481 15.566 16.3481 14.9377 16.3481 13.6811V13.5903C16.3481 13.0978 16.3481 12.8514 16.4312 12.6271C16.4428 12.5959 16.4556 12.5653 16.4694 12.535C16.5692 12.3175 16.7433 12.1434 17.0916 11.7951C17.8931 10.9935 18.294 10.5928 18.3309 10.0996C18.3359 10.0334 18.3359 9.96669 18.3309 9.90044C18.294 9.40727 17.8931 9.00644 17.0916 8.2049C16.7433 7.85663 16.5692 7.68249 16.4694 7.46499C16.4556 7.43479 16.4428 7.40407 16.4312 7.37291C16.3481 7.14856 16.3481 6.9023 16.3481 6.40978V6.31893C16.3481 5.06234 16.3481 4.43405 15.9576 4.04368C15.5673 3.6533 14.939 3.6533 13.6824 3.6533H13.5916Z"  stroke-width="1.5"/>
<path d="M7.08203 13.75C7.66422 12.7436 8.75236 12.0664 9.9987 12.0664C11.245 12.0664 12.3332 12.7436 12.9154 13.75M11.6654 8.33335C11.6654 9.25385 10.9192 10 9.9987 10C9.07828 10 8.33203 9.25385 8.33203 8.33335C8.33203 7.41288 9.07828 6.66669 9.9987 6.66669C10.9192 6.66669 11.6654 7.41288 11.6654 8.33335Z"  stroke-width="1.5" stroke-linecap="round"/>
</g>
<defs>
<clipPath id="clip0_1_7847">
<rect width="20" height="20" fill="white"/>
</clipPath>
</defs>
</svg>
