<svg width="141" height="16" viewBox="0 0 141 16" fill="none" xmlns="http://www.w3.org/2000/svg">
<path d="M0.292892 8.70711C-0.0976257 8.31658 -0.0976257 7.68342 0.292892 7.29289L6.65686 0.928932C7.04738 0.538408 7.68054 0.538408 8.07108 0.928932C8.46159 1.31946 8.46159 1.95262 8.07108 2.34315L2.41422 8L8.07108 13.6569C8.46159 14.0474 8.46159 14.6805 8.07108 15.0711C7.68054 15.4616 7.04738 15.4616 6.65686 15.0711L0.292892 8.70711ZM141 9H139.056V7H141V9ZM135.167 9H131.278V7H135.167V9ZM127.389 9H123.5V7H127.389V9ZM119.611 9H115.722V7H119.611V9ZM111.833 9H107.944V7H111.833V9ZM104.056 9H100.167V7H104.056V9ZM96.2778 9H92.3889V7H96.2778V9ZM88.5 9H84.6111V7H88.5V9ZM80.7222 9H76.8333V7H80.7222V9ZM72.9444 9H69.0556V7H72.9444V9ZM65.1667 9H61.2778V7H65.1667V9ZM57.3889 9H53.5V7H57.3889V9ZM49.6111 9H45.7222V7H49.6111V9ZM41.8334 9H37.9445V7H41.8334V9ZM34.0556 9H30.1667V7H34.0556V9ZM26.2778 9H22.3889V7H26.2778V9ZM18.5 9H14.6112V7H18.5V9ZM10.7223 9H6.83339V7H10.7223V9ZM2.9445 9H1V7H2.9445V9ZM0.292892 8.70711C-0.0976257 8.31658 -0.0976257 7.68342 0.292892 7.29289L6.65686 0.928932C7.04738 0.538408 7.68054 0.538408 8.07108 0.928932C8.46159 1.31946 8.46159 1.95262 8.07108 2.34315L2.41422 8L8.07108 13.6569C8.46159 14.0474 8.46159 14.6805 8.07108 15.0711C7.68054 15.4616 7.04738 15.4616 6.65686 15.0711L0.292892 8.70711ZM141 9H139.056V7H141V9ZM135.167 9H131.278V7H135.167V9ZM127.389 9H123.5V7H127.389V9ZM119.611 9H115.722V7H119.611V9ZM111.833 9H107.944V7H111.833V9ZM104.056 9H100.167V7H104.056V9ZM96.2778 9H92.3889V7H96.2778V9ZM88.5 9H84.6111V7H88.5V9ZM80.7222 9H76.8333V7H80.7222V9ZM72.9444 9H69.0556V7H72.9444V9ZM65.1667 9H61.2778V7H65.1667V9ZM57.3889 9H53.5V7H57.3889V9ZM49.6111 9H45.7222V7H49.6111V9ZM41.8334 9H37.9445V7H41.8334V9ZM34.0556 9H30.1667V7H34.0556V9ZM26.2778 9H22.3889V7H26.2778V9ZM18.5 9H14.6112V7H18.5V9ZM10.7223 9H6.83339V7H10.7223V9ZM2.9445 9H1V7H2.9445V9Z" fill="#272727"/>
</svg>
