<svg width="32" height="32" viewBox="0 0 32 32" fill="none" xmlns="http://www.w3.org/2000/svg">
<path d="M21.3334 21.3333C22.1548 21.3333 22.8207 20.6511 22.8207 19.8095V18.1549C22.8207 17.7508 22.9774 17.3632 23.2563 17.0775L23.7822 16.5388C24.0727 16.2412 24.0727 15.7588 23.7822 15.4612L23.2563 14.9225C22.9774 14.6368 22.8207 14.2492 22.8207 13.8451V12.1905C22.8207 11.3489 22.1548 10.6667 21.3334 10.6667" stroke="#272727" stroke-width="1.5" stroke-linecap="round" stroke-linejoin="round"/>
<path d="M10.6667 21.3333C9.84522 21.3333 9.1793 20.6511 9.1793 19.8095V18.1549C9.1793 17.7508 9.02261 17.3632 8.74368 17.0775L8.21781 16.5388C7.9274 16.2412 7.9274 15.7588 8.21781 15.4612L8.74368 14.9225C9.02261 14.6368 9.1793 14.2492 9.1793 13.8451V12.1905C9.1793 11.3489 9.84522 10.6667 10.6667 10.6667" stroke="#272727" stroke-width="1.5" stroke-linecap="round" stroke-linejoin="round"/>
<path d="M13.3331 16H13.3451M18.6546 16H18.6664" stroke="#272727" stroke-width="2" stroke-linecap="round" stroke-linejoin="round"/>
<path d="M16 29.3333C23.3638 29.3333 29.3333 23.3638 29.3333 16C29.3333 8.6362 23.3638 2.66667 16 2.66667C8.63616 2.66667 2.66663 8.6362 2.66663 16C2.66663 23.3638 8.63616 29.3333 16 29.3333Z" stroke="#272727" stroke-width="1.5"/>
</svg>
