<svg width="32" height="32" viewBox="0 0 32 32" fill="none" xmlns="http://www.w3.org/2000/svg">
<path d="M9.33643 10.3333L13.2591 12.6526C15.5461 14.0047 16.4601 14.0047 18.747 12.6526L22.6697 10.3333" stroke="#FEFDFF" stroke-width="1.5" stroke-linecap="round" stroke-linejoin="round"/>
<path d="M29.3301 14.3333V13.0379C29.2429 8.94818 29.1993 6.90332 27.6904 5.38854C26.1813 3.87376 24.0812 3.82098 19.8808 3.71545C17.2921 3.65041 14.7288 3.6504 12.14 3.71544C7.93971 3.82097 5.83955 3.87373 4.33053 5.38852C2.82153 6.9033 2.77792 8.94817 2.69071 13.0379C2.66267 14.3529 2.66267 15.6601 2.69071 16.9752C2.77793 21.0649 2.82153 23.1097 4.33055 24.6245C5.83955 26.1393 7.93971 26.1921 12.14 26.2976C12.7644 26.3133 14.0476 26.3252 14.6697 26.3333" stroke="#FEFDFF" stroke-width="1.5" stroke-linecap="round" stroke-linejoin="round"/>
<path d="M27.8062 18.2524L28.7294 19.1756C29.5103 19.9567 29.5103 21.2229 28.7294 22.004L23.8928 26.9316C23.5123 27.312 23.0256 27.5685 22.4967 27.6673L19.4992 28.318C19.0259 28.4208 18.6044 28.0005 18.7059 27.5269L19.3439 24.5465C19.4427 24.0176 19.6991 23.5309 20.0796 23.1505L24.9778 18.2524C25.7588 17.4715 27.0251 17.4715 27.8062 18.2524Z" stroke="#FEFDFF" stroke-width="1.5" stroke-linecap="round" stroke-linejoin="round"/>
</svg>
