<svg width="224" height="236" viewBox="0 0 224 236" fill="none" xmlns="http://www.w3.org/2000/svg">
<path d="M196.719 221.585C196.731 225.212 197.205 228.821 198.128 232.328C181.74 247.478 161.429 257.66 139.537 261.699C117.624 265.751 95.0188 263.506 74.3156 255.222C70.1897 242.222 67.8776 228.709 67.4455 215.069C53.7099 218.062 41.3812 221.057 28.3466 222.288C23.142 222.856 17.9082 223.148 12.6719 223.17L20.5971 212.251L53.8858 166.638H186.505L198.834 208.904C197.422 212.98 196.706 217.267 196.719 221.583V221.585Z" fill="white"/>
<path d="M67.4433 188.299C67.4433 188.299 63.0422 204.678 58.4629 217.005L67.4433 215.069C66.9157 203.447 67.4433 188.299 67.4433 188.299Z" fill="black"/>
<path d="M101.263 228.455C101.263 231.094 103.024 233.561 105.139 233.738C107.252 233.912 109.013 231.624 108.661 228.804C108.545 227.721 108.062 226.711 107.293 225.944C106.523 225.174 105.514 224.692 104.434 224.578C103.738 224.644 103.077 224.917 102.536 225.362C101.994 225.807 101.596 226.404 101.393 227.076C101.259 227.522 101.215 227.99 101.263 228.452V228.455ZM169.951 233.207C168.717 227.045 167.484 221.408 166.253 215.597C166.134 214.972 165.808 214.405 165.328 213.989C164.848 213.574 164.243 213.333 163.611 213.307C153.043 213.13 138.426 211.017 132.613 196.575C132.535 196.353 132.413 196.15 132.255 195.976C132.096 195.803 131.905 195.664 131.692 195.567C131.479 195.469 131.248 195.413 131.013 195.405C130.778 195.397 130.544 195.435 130.324 195.518C129.908 195.707 129.582 196.053 129.417 196.481C129.252 196.91 129.261 197.386 129.443 197.808C136.665 215.772 155.861 216.654 162.907 216.831C164.138 222.465 165.196 227.924 166.429 233.912C167.662 239.9 168.717 245.536 169.951 251.524L173.297 249.939C172.063 244.126 171.008 238.666 169.951 233.207Z" fill="#8CD9FF"/>
<path d="M20.5971 212.25L12.6719 223.169C17.9106 223.236 23.1494 222.943 28.3466 222.287C34.1593 221.759 39.6203 220.879 45.2547 219.823C41.1201 210.977 37.7614 201.784 35.2168 192.35L20.5971 212.25Z" fill="#0EC2BC"/>
<path d="M192.136 29.2694L119.396 10.4263L87.6953 92.8457L179.631 116.623L192.136 29.2694Z" fill="white"/>
<path d="M192.346 28.9132C195.314 16.9228 181.339 3.15104 161.134 -1.84907C140.928 -6.85163 122.142 -1.18566 119.175 10.8072C116.207 22.7976 130.18 36.5719 150.387 41.572C170.593 46.5721 189.379 40.9061 192.346 28.9132Z" fill="white"/>
<path d="M128.732 12.8931L103.723 82.6316L100.201 81.5751L125.21 12.011L129.614 -0.31606L134.017 -2.07777L128.732 12.8931ZM188.437 14.4779L186.324 27.8614L174.171 100.949L170.474 99.8924L182.802 26.9818L185.445 10.9544C186.534 12.0454 187.536 13.2248 188.437 14.4779ZM124.683 88.0912L121.161 87.0347L142.294 16.414L148.283 -3.66257H151.981L145.816 17.2961L124.683 88.0912ZM173.644 2.67663L169.064 23.2815L153.214 95.4894L149.692 94.6073L165.719 22.4019L170.298 1.26874L173.644 2.67663Z" fill="#8CD9FF"/>
<path d="M102.141 64.3171C94.5676 62.5554 85.5873 65.5505 80.6562 88.4453H117.994C115.703 74.8824 110.596 66.0788 102.141 64.3171Z" fill="#2AE5C4"/>
<path d="M98.7907 72.9485C92.978 72.0639 89.1045 76.4694 87.6953 84.3934H106.188C106.54 78.5825 103.898 73.4743 98.7907 72.946V72.9485Z" fill="black"/>
<path d="M99.8605 79.2876C91.2294 78.4056 85.4191 84.2165 83.6582 92.8481H107.258C109.547 86.5089 107.61 79.9904 99.8605 79.2852V79.2876ZM154.458 62.3807C145.827 61.3241 136.493 68.7199 134.38 85.0986L173.655 89.853C171.894 71.3612 164.672 63.6116 154.458 62.3807Z" fill="#2AE5C4"/>
<path d="M151.808 72.772C145.998 71.8899 142.298 76.6443 140.889 85.099H159.382C159.558 78.9342 156.917 73.4771 151.808 72.772Z" fill="black"/>
<path d="M150.563 78.9327C141.758 78.0531 136.649 83.8641 136.121 93.1984L161.836 92.847C162.364 86.154 158.488 79.6379 150.563 78.9327Z" fill="#2AE5C4"/>
<path d="M117.648 81.2231C85.0651 82.4565 66.7477 87.9161 53.8914 100.948C48.8456 106.23 45.2992 112.776 43.6216 119.904C41.9492 127.026 42.2116 134.469 44.3812 141.453C52.6581 169.279 75.7306 198.69 121.7 200.803C167.666 202.916 201.307 174.915 209.584 146.033C217.861 117.15 194.612 78.4048 117.648 81.2231Z" fill="#2AE5C4"/>
<path d="M114.29 105.88L75.7189 104.469C59.6925 138.283 61.9833 163.996 73.2546 184.424C85.4075 193.582 101.258 199.923 121.688 200.803C136.748 201.535 151.77 198.7 165.542 192.525C175.052 142.686 168.185 116.799 162.372 105.526L114.29 105.88Z" fill="#ADFDDC"/>
<path d="M158.145 105.349C121.158 100.067 110.063 99.8921 75.7193 104.47C70.7883 130.711 87.6964 146.913 106.717 148.672C130.317 150.785 149.692 131.767 158.145 105.349Z" fill="#9E0960"/>
<path d="M81.7116 101.651C80.1358 103.949 78.0364 105.835 75.5888 107.15C73.1344 108.468 70.4035 109.179 67.6219 109.224C62.1634 108.873 60.5784 104.647 64.1002 99.8897C67.622 95.1353 73.9622 92.6708 78.5415 93.3735C83.1208 94.0787 84.3542 97.5997 81.7116 101.654V101.651ZM154.803 103.764C157.621 109.752 165.37 113.804 171.359 112.396C177.347 110.986 178.227 106.057 175.232 101.123C173.73 98.7279 171.655 96.7496 169.198 95.3687C166.733 93.9834 163.965 93.2378 161.143 93.1991C155.508 93.5505 152.338 98.1304 154.803 103.764Z" fill="#5865F2"/>
<path d="M151.63 120.672C149.937 117.902 147.624 115.57 144.875 113.861C142.12 112.147 139.006 111.102 135.78 110.809C123.451 109.578 112.004 119.089 110.595 131.944C110.221 134.872 110.434 137.845 111.221 140.688C112.007 143.531 113.351 146.188 115.174 148.5C130.319 146.559 142.999 135.994 151.63 120.672Z" fill="black"/>
<path d="M78.3607 192.702C78.0238 197.435 78.6644 202.187 80.2423 206.659C81.8202 211.131 84.3013 215.225 87.5292 218.685C90.7631 222.159 94.6729 224.927 99.0153 226.816C103.365 228.709 108.054 229.686 112.794 229.686C117.533 229.686 122.222 228.709 126.572 226.816C130.914 224.927 134.824 222.159 138.058 218.685C141.286 215.225 143.767 211.13 145.345 206.658C146.923 202.185 147.564 197.433 147.226 192.699H78.3607V192.702Z" fill="#0C1AAD"/>
<path d="M49.4724 138.812C44.3631 132.119 40.1379 127.541 34.8528 124.02C29.9646 120.733 24.1754 119.069 18.2989 119.263H12.8378C12.6242 119.307 12.4236 119.399 12.2518 119.534C12.0799 119.669 11.9417 119.842 11.8479 120.04C11.754 120.238 11.7072 120.455 11.7112 120.674C11.7151 120.893 11.7697 121.108 11.8707 121.303C12.0079 121.563 12.2233 121.774 12.4862 121.905C25.3425 125.428 31.6827 129.3 40.1379 139.694C48.5908 150.082 67.7873 176.675 82.7587 199.218L96.6725 200.626C80.1161 177.38 60.2137 152.723 49.4724 138.812Z" fill="#0C1AAD"/>
<path d="M-2.82809 213.658C-1.90214 215.671 -0.584114 217.475 1.04786 218.966C2.68356 220.458 4.59921 221.607 6.68228 222.344C8.7682 223.082 10.9793 223.395 13.1866 223.264C15.3939 223.133 17.5532 222.561 19.5386 221.582C34.5099 214.187 52.1214 204.855 60.0467 200.803C72.0238 194.638 73.9605 189.181 73.2571 180.021C85.9376 174.562 88.4043 167.166 84.1767 159.768C79.949 152.372 77.4847 147.441 71.3204 147.441C71.3204 137.578 67.0927 134.232 54.0582 138.635C47.8962 140.748 44.1961 141.804 41.9077 144.094C39.6168 146.384 39.0892 152.021 38.7375 166.638C38.5617 173.328 38.0317 175.09 32.749 177.908L4.92136 191.643C1.02258 193.573 -1.9728 196.959 -3.42644 201.078C-4.87313 205.188 -4.65827 209.706 -2.82809 213.658Z" fill="#2AE5C4"/>
<path d="M196.722 221.585C196.735 225.153 197.208 228.705 198.131 232.15C194.4 235.621 190.459 238.856 186.33 241.836L171.889 189.356C185.097 156.775 202.005 151.667 216.449 172.803C218.737 176.324 221.025 180.198 223.316 184.25C215.572 186.942 208.848 191.984 204.071 198.68C199.311 205.359 196.742 213.367 196.722 221.585Z" fill="white"/>
<path d="M118.166 129.3C108.304 122.256 101.082 123.138 95.6206 133.352C94.4111 135.519 93.4656 137.825 92.8047 140.219C97.9565 144.773 104.454 147.496 111.295 147.969C113.638 148.234 116.002 148.234 118.341 147.969C128.08 145.776 136.817 140.385 143.175 132.647C139.653 126.131 130.319 119.614 118.166 129.303V129.3Z" fill="#FF78B9"/>
<path d="M103.197 174.387C85.4101 168.399 89.9869 143.566 95.6238 133.352C96.6528 131.162 98.0877 129.19 99.8514 127.541L114.293 133.703L133.489 129.477C133.426 132.541 133.191 135.598 132.786 138.635C130.319 167.694 120.985 180.373 103.197 174.385V174.387Z" fill="#FF78B9"/>
<path d="M118.164 129.3L116.934 128.069C116.404 127.715 115.348 127.187 114.994 127.364C109.536 133 105.838 142.863 102.844 159.768C102.84 160.226 102.996 160.672 103.286 161.026C103.576 161.38 103.981 161.62 104.429 161.704H104.605C105.03 161.672 105.434 161.499 105.752 161.213C106.071 160.927 106.286 160.543 106.366 160.121C109.36 143.389 112.882 134.057 118.164 129.126V129.303V129.3Z" fill="black"/>
<path d="M82.7653 199.395L96.6791 200.803C89.6355 191.118 82.2378 181.078 75.0159 171.744L71.6699 173.857C72.5711 175.798 73.1084 177.886 73.2549 180.024V185.13C76.4251 189.884 79.771 194.639 82.7653 199.395Z" fill="#0C1AAD"/>
<path d="M197.776 230.74L184.39 206.086C184.21 205.795 184.129 205.454 184.158 205.113C184.187 204.772 184.325 204.449 184.551 204.194C184.702 204.023 184.888 203.888 185.096 203.796C185.406 203.609 185.766 203.524 186.127 203.551C186.488 203.578 186.831 203.717 187.111 203.948C187.297 204.099 187.45 204.287 187.56 204.501C189.675 208.727 193.197 215.066 196.719 221.585C196.712 224.668 197.067 227.742 197.776 230.742V230.74Z" fill="black"/>
<path d="M151.278 228.455C151.278 231.094 153.039 233.56 155.152 233.737C157.267 233.912 159.028 231.624 158.673 228.804C158.558 227.721 158.076 226.711 157.308 225.944C156.538 225.174 155.528 224.692 154.448 224.577C153.514 224.668 152.653 225.128 152.055 225.855C151.761 226.215 151.541 226.63 151.408 227.075C151.275 227.521 151.231 227.989 151.278 228.452V228.455ZM107.072 255.399C105.312 255.399 103.902 256.983 103.902 259.448C103.961 260.718 104.388 261.942 105.133 262.971L110.594 263.323C111.31 262.232 111.561 260.902 111.298 259.625C111.182 258.542 110.7 257.532 109.932 256.765C109.162 255.994 108.153 255.512 107.072 255.399ZM158.849 253.109C158.119 253.175 157.424 253.458 156.853 253.922C156.283 254.386 155.862 255.011 155.645 255.716C155.503 256.182 155.455 256.674 155.503 257.158C155.503 257.335 155.679 257.335 155.679 257.512L162.019 255.222C161.693 254.644 161.236 254.152 160.685 253.785C160.134 253.418 159.505 253.186 158.849 253.109Z" fill="#8CD9FF"/>
<path d="M71.1419 143.743C65.8304 144.36 60.6551 145.847 55.8213 148.146C55.395 148.372 55.0682 148.75 54.905 149.206C54.7419 149.662 54.7542 150.163 54.9396 150.611C55.1307 150.913 55.3895 151.166 55.6953 151.349C56.0011 151.533 56.3454 151.642 56.7005 151.667H57.4064C61.7562 149.403 66.4628 147.913 71.3177 147.264C71.3519 146.088 71.2931 144.91 71.1419 143.743ZM82.9431 157.48L81.0064 154.134C75.3728 154.535 69.8698 156.03 64.8016 158.537C64.3884 158.729 64.0655 159.075 63.9014 159.502C63.7373 159.929 63.7448 160.403 63.9224 160.824C64.0574 161.135 64.2788 161.401 64.56 161.588C64.8412 161.775 65.1702 161.877 65.5075 161.881H66.2108C71.4387 159.326 77.1356 157.887 82.9431 157.655V157.48Z" fill="black"/>
<path d="M118.079 84.9557C122.16 84.7493 125.442 84.108 125.413 83.5257C125.384 82.9434 122.052 82.6387 117.971 82.8451C113.892 83.0515 110.608 83.6928 110.637 84.2751C110.666 84.8574 114 85.1621 118.079 84.9557Z" fill="#2FFFDA"/>
<path d="M103.435 131.069C104.434 129.752 104.679 128.256 103.982 127.728C103.284 127.197 101.909 127.836 100.91 129.153C99.9087 130.47 99.6645 131.966 100.363 132.495C101.059 133.025 102.434 132.386 103.435 131.069Z" fill="#FFABD3"/>
<path d="M24.6489 121.553C23.418 121.553 22.7122 121.728 22.888 122.082C23.0638 122.433 23.5938 122.61 26.2339 123.667C29.6018 124.945 32.6631 126.925 35.2168 129.477C37.1535 131.239 37.1535 131.062 39.0927 131.062C41.0295 131.062 40.5019 130.534 40.1477 130.183C37.2171 127.068 33.7586 124.504 29.9341 122.61C28.2447 121.959 26.4575 121.601 24.6489 121.553Z" fill="#5865F2"/>
<path d="M112.709 196.047C131.676 196.047 147.053 194.55 147.053 192.703C147.053 190.855 131.676 189.356 112.709 189.356C93.7419 189.356 78.3652 190.855 78.3652 192.703C78.3652 194.55 93.7419 196.049 112.709 196.049V196.047Z" fill="#0C1AAD"/>
<path d="M82.4131 193.407C81.358 194.815 94.9177 196.049 112.707 196.049C130.495 196.049 144.233 194.815 143.175 193.407C142.12 191.997 128.558 190.94 112.707 190.94C96.8569 190.94 83.2948 191.997 82.4131 193.407Z" fill="black"/>
<path d="M134.364 198.69C129.082 199.218 124.151 199.57 120.981 199.57C120.639 199.612 120.325 199.779 120.098 200.039C119.871 200.299 119.746 200.634 119.747 200.98C118.69 212.779 117.632 222.641 112.701 227.221C127.673 227.221 134.364 213.13 135.422 199.747C135.422 199.607 135.395 199.469 135.341 199.34C135.288 199.212 135.21 199.095 135.112 198.997C135.014 198.899 134.897 198.821 134.769 198.768C134.64 198.716 134.503 198.689 134.364 198.69Z" fill="#5865F2"/>
</svg>
