<svg width="174" height="194" viewBox="0 0 174 194" fill="none" xmlns="http://www.w3.org/2000/svg">
<path d="M133.035 103.886L142.401 95.9606C145.586 93.352 149.508 91.8099 153.615 91.552C157.722 91.294 161.807 92.3333 165.292 94.523C172.776 99.2756 175.21 108.389 170.984 115.773C163.025 129.668 149.558 152.136 135.967 170.059L133.035 103.886Z" fill="#FFC619"/>
<path d="M87.812 193.787C119.584 193.787 145.341 170.349 145.341 141.437C145.341 112.525 119.584 89.0873 87.812 89.0873C56.0397 89.0873 30.2832 112.525 30.2832 141.437C30.2832 170.349 56.0397 193.787 87.812 193.787Z" fill="#FFC619"/>
<path d="M122.078 163.246C109.988 162.604 100.759 153.147 101.465 142.162C105.341 81.7212 85.8976 43.3263 78.5797 28.8666C73.5111 18.8624 78.3244 7.01058 89.3221 2.40058C100.32 -2.20943 113.347 2.16299 118.404 12.1731C131.859 38.7519 149.266 81.3826 145.237 144.485C144.542 155.487 134.168 163.887 122.078 163.246Z" fill="#FFC619"/>
<path d="M58.8316 169.698C47.0742 172.347 35.1862 165.824 32.2661 155.131C24.7642 127.572 13.9386 106.031 3.35632 89.6998C-2.4482 80.7352 0.311548 69.228 9.66525 63.2517C20.0813 56.5921 34.5926 59.3307 41.0796 69.2933C53.9232 88.975 66.2208 113.884 74.8385 145.537C77.7467 156.224 70.5831 167.042 58.8316 169.698Z" fill="#FFC619"/>
<path d="M112.212 19.7853C113.966 18.1897 113.398 14.7057 110.944 12.0035C108.49 9.30128 105.079 8.40415 103.326 9.99972C101.572 11.5953 102.14 15.0793 104.594 17.7815C107.048 20.4837 110.458 21.3809 112.212 19.7853Z" fill="#272727"/>
<path d="M34.8264 77.8054C36.485 76.1295 35.7171 72.6764 33.1113 70.0925C30.5055 67.5087 27.0485 66.7727 25.3899 68.4486C23.7313 70.1245 24.4992 73.5777 27.105 76.1615C29.7108 78.7454 33.1677 79.4813 34.8264 77.8054Z" fill="#272727"/>
<path d="M94.6127 118.066C100.637 119.944 106.352 121.904 111.629 123.068C116.905 124.233 121.41 124.536 124.983 123.924C126.835 123.496 128.619 122.812 130.282 121.892C130.734 121.637 131.191 121.387 131.659 121.144L133.007 120.104C133.464 119.753 133.968 119.51 134.419 119.076L135.796 117.817C139.518 114.413 143.019 109.856 146.622 105.092L146.865 104.771C149.791 100.904 155.602 99.9293 159.845 102.591C161.428 103.517 162.651 104.952 163.314 106.664C163.977 108.375 164.041 110.261 163.495 112.013C161.337 118.899 157.979 125.348 153.578 131.065L151.702 133.37C151.061 134.136 150.254 134.867 149.512 135.609L147.192 137.784L144.479 139.798C142.6 141.185 140.586 142.379 138.467 143.362C137.389 143.913 136.267 144.374 135.114 144.74C133.962 145.15 132.805 145.56 131.636 145.928C127.012 147.112 122.234 147.577 117.469 147.307C116.341 147.241 115.207 147.188 114.08 147.081C112.952 146.974 111.961 146.73 110.899 146.552C109.836 146.374 108.774 146.19 107.753 145.958C106.732 145.726 105.782 145.453 104.785 145.168C97.5404 143.092 90.6277 139.993 84.2559 135.966C79.1635 132.776 77.8757 126.461 81.3774 121.809C84.2856 117.965 89.5796 116.504 94.209 117.942L94.6127 118.066Z" fill="#EB459F"/>
<path d="M90.3923 125.421C96.4105 128.094 102.542 130.554 108.851 132.146C115.16 133.738 121.67 134.368 127.736 132.966C133.79 131.469 138.959 127.785 143.126 123.259C147.292 118.732 150.61 113.391 153.571 107.937V107.902C153.792 107.536 154.14 107.264 154.549 107.139C154.957 107.014 155.398 107.044 155.785 107.225C155.968 107.297 156.133 107.406 156.272 107.544C156.412 107.683 156.521 107.848 156.594 108.031C156.668 108.213 156.703 108.408 156.699 108.605C156.694 108.801 156.65 108.994 156.569 109.173C153.827 114.906 150.663 120.573 146.277 125.617C141.891 130.661 136.021 135.009 128.905 136.904C121.783 138.687 114.323 137.849 107.616 136.108C101.02 134.263 94.6251 131.76 88.5288 128.635C88.3063 128.537 88.1069 128.394 87.9438 128.214C87.7807 128.034 87.6575 127.821 87.5824 127.59C87.5073 127.359 87.4819 127.114 87.5079 126.872C87.534 126.631 87.6108 126.397 87.7334 126.187C88.0044 125.769 88.4166 125.462 88.8949 125.322C89.3732 125.183 89.8856 125.22 90.3389 125.427L90.3923 125.421Z" fill="#272727"/>
<path d="M122.222 116.588C121.669 116.61 121.128 116.422 120.71 116.06C120.291 115.698 120.025 115.19 119.967 114.639C119.338 103.536 112.192 94.9574 101.77 92.7891C101.493 92.7459 101.228 92.6468 100.991 92.4977C100.754 92.3486 100.55 92.1527 100.391 91.922C100.232 91.6912 100.122 91.4305 100.067 91.1557C100.012 90.8808 100.014 90.5978 100.072 90.3236C100.24 89.768 100.614 89.2979 101.117 89.0104C101.621 88.723 102.216 88.6402 102.779 88.7791C115.242 91.3692 123.741 101.439 124.483 114.425C124.486 114.708 124.432 114.989 124.325 115.251C124.219 115.514 124.061 115.752 123.862 115.953C123.663 116.154 123.426 116.314 123.165 116.423C122.904 116.532 122.624 116.588 122.341 116.588H122.222Z" fill="#272727"/>
<path d="M97.8219 12.5658C97.2633 12.5895 96.7171 12.3974 96.2962 12.0291C95.8753 11.6609 95.6118 11.1447 95.5605 10.5875C95.5636 10.3043 95.6226 10.0245 95.7337 9.76408C95.8448 9.50363 96.0061 9.26761 96.2084 9.06957C96.4107 8.87152 96.6499 8.71528 96.9125 8.6098C97.1751 8.50431 97.4559 8.45169 97.7388 8.45482C101.448 8.28211 105.131 7.74685 108.736 6.85673C109.293 6.69049 109.892 6.74221 110.412 7.00141C110.933 7.2606 111.335 7.7079 111.538 8.25279C111.615 8.52096 111.636 8.80215 111.599 9.07878C111.563 9.3554 111.47 9.62157 111.326 9.86067C111.183 10.0998 110.991 10.3067 110.764 10.4685C110.537 10.6304 110.279 10.7437 110.007 10.8014C106.043 11.8 101.988 12.3971 97.9049 12.5836L97.8219 12.5658Z" fill="#272727"/>
<path d="M21.2143 69.935C20.6559 69.957 20.1104 69.7633 19.6906 69.394C19.2708 69.0246 19.0088 68.5079 18.959 67.9507C18.9613 67.6678 19.0195 67.3881 19.13 67.1277C19.2405 66.8673 19.4013 66.6313 19.6031 66.4332C19.8049 66.2351 20.0437 66.0787 20.306 65.9731C20.5682 65.8676 20.8487 65.8149 21.1313 65.818C24.8428 65.6491 28.5286 65.1139 32.135 64.22C32.6925 64.0555 33.2915 64.1088 33.8113 64.3689C34.3312 64.6291 34.7333 65.0769 34.9364 65.622C35.0123 65.8906 35.0323 66.1719 34.9952 66.4486C34.958 66.7252 34.8644 66.9912 34.7203 67.2302C34.5762 67.4691 34.3845 67.676 34.1572 67.8377C33.93 67.9995 33.6719 68.1127 33.3991 68.1705C29.4376 69.1716 25.3851 69.7687 21.3035 69.9527L21.2143 69.935Z" fill="#272727"/>
</svg>
