<svg width="28" height="28" viewBox="0 0 28 28" fill="none" xmlns="http://www.w3.org/2000/svg">
<path d="M6.12332 21.0564C6.12332 21.0564 6.88712 22.098 7.76663 23.3941C9.64137 16.7515 10.7292 16.4737 13.414 15.7562C12.7891 18.4873 11.3078 22.584 10.7292 24.1579C10.1506 25.7317 9.22477 27.3056 7.6972 27.3056C6.16963 27.3056 4.75778 25.0142 3.4848 22.9312C1.81836 22.9312 1.30916 22.9775 0.614814 22.2831C-0.0795363 21.5888 -0.241549 20.7555 0.429657 19.5752C1.10086 18.3948 1.30917 18.2096 2.72102 18.1633C4.13286 18.117 5.10495 18.279 5.68358 18.8345C6.2622 19.39 6.30848 20.2926 6.12332 21.0564Z" fill="#66BCFF"/>
<path d="M22.8335 13.164C22.3011 11.2684 21.4992 9.45973 20.4495 7.79431L19.5469 13.6037C22.8103 14.5295 23.2038 14.6221 22.8335 13.164Z" fill="#B0E5FF"/>
<path d="M25.6332 29.0876C23.4113 30.0366 19.6386 31.055 15.4494 31.8187C13.2506 32.2122 11.2138 32.4668 9.47795 32.6057C8.90835 31.9766 8.53087 31.1975 8.39015 30.3606C8.34293 30.14 8.31977 29.9151 8.3207 29.6894C8.20498 28.023 8.80676 26.1482 10.0103 24.366C9.59369 19.1121 10.4269 16.5199 13.4126 15.733C18.1342 14.4831 20.9347 14.0202 22.8326 15.3858C24.7305 16.7513 24.4759 19.5287 24.2445 23.7411C24.6148 24.3429 25.3786 25.4076 25.6563 26.8657C25.7906 27.601 25.7813 28.3551 25.6332 29.0876Z" fill="#EB459F"/>
<path d="M21.5621 19.7602H21.4927L20.4511 19.413C20.4018 19.3881 20.3632 19.3464 20.3419 19.2955C20.3208 19.2446 20.3185 19.1878 20.3354 19.1353C20.343 19.1098 20.3558 19.0865 20.3734 19.0663C20.3907 19.0464 20.4122 19.0305 20.4363 19.0194C20.4604 19.0085 20.4868 19.0027 20.5132 19.0027C20.5398 19.0029 20.5659 19.0085 20.59 19.0196L21.6315 19.3899C21.6831 19.4059 21.7266 19.4415 21.7526 19.489C21.7785 19.5366 21.785 19.5924 21.7704 19.6445C21.7493 19.6808 21.719 19.7109 21.6822 19.7313C21.6456 19.7517 21.604 19.7616 21.5621 19.7602Z" fill="#272727"/>
<path d="M18.2045 31.2864C17.8342 29.1802 18.1351 26.2871 19.5701 23.5328C18.3434 19.1584 17.9268 14.3905 20.7273 14.622C18.9683 14.4137 16.6538 14.8997 13.4135 15.7561H13.3903C11.5156 16.3116 11.2842 19.9685 12.6266 24.5975C11.6545 27.0509 11.1684 30.2217 12.0711 32.3511C13.1358 32.2122 14.2699 32.0502 15.4503 31.8419C16.6307 31.6336 17.3019 31.4947 18.2045 31.2864Z" fill="white"/>
<path d="M17.9973 3.16528C18.5527 2.33206 19.2008 1.96174 19.8257 2.10061C20.4506 2.23948 20.9367 3.09584 20.8209 5.31777C20.7052 7.53969 21.4459 11.1272 20.9135 14.6452C20.4969 14.5758 19.7331 14.5989 19.2702 15.2007C17.3492 17.7466 16.2382 18.9965 14.8495 19.0659C13.4608 19.1353 12.3499 18.1633 11.9564 13.9277C11.6382 10.2143 12.2341 6.47946 13.6923 3.04956C14.3403 1.63771 15.2893 0.596184 16.1225 0.387879C16.9557 0.179573 17.8815 1.08223 17.9973 3.16528Z" fill="#66BCFF"/>
<path d="M18.645 17.2837C17.372 18.9733 16.0527 19.7834 14.6177 19.7834H14.5946C14.3317 19.7866 14.071 19.7325 13.831 19.6246C13.5912 19.5165 13.3779 19.3575 13.2059 19.1585C12.8587 18.7187 12.5115 17.8623 12.6273 16.2422C12.4571 16.4496 12.3097 16.6746 12.1875 16.9134C12.2106 18.0012 12.4421 18.8576 12.905 19.4131C13.1073 19.6651 13.3651 19.8672 13.6579 20.0035C13.9509 20.14 14.2715 20.2072 14.5946 20.2H14.6177C16.0759 20.2 17.372 19.4825 18.6218 17.9781C18.6218 17.7466 18.6218 17.5152 18.645 17.2837Z" fill="#91FFAD"/>
<path d="M17.9961 3.16533C18.1581 5.24838 18.135 7.63231 18.135 7.63231C19.1765 5.87329 19.7551 4.57717 19.9866 3.60508C20.218 2.63299 19.5699 1.77663 18.8293 2.30896C18.5016 2.54111 18.2192 2.83137 17.9961 3.16533Z" fill="#272727"/>
<path d="M18.3442 9.99318C18.5261 9.65896 18.6809 9.31065 18.8071 8.95165C18.9691 8.58133 19.1543 8.30359 19.5246 8.30359C19.8949 8.30359 20.3115 8.9285 20.0338 9.71543C19.756 10.5024 19.0617 11.1273 18.5062 11.1273C17.9507 11.1273 18.0433 10.6412 18.3442 9.99318Z" fill="white"/>
<path d="M18.558 9.84658C18.6962 9.58784 18.708 9.32452 18.5841 9.25844C18.4603 9.19236 18.2481 9.34852 18.1099 9.60726C17.9717 9.86597 17.9599 10.1293 18.0837 10.1954C18.2076 10.2615 18.4198 10.1053 18.558 9.84658Z" fill="#272727"/>
<path d="M15.6124 6.52126C16.0753 3.97531 15.2883 3.5587 14.4088 3.72071C13.5293 3.88273 13.0664 4.6928 12.7655 5.68804C12.0003 8.36319 11.7261 11.1547 11.9554 13.9277C12.3489 18.1632 13.7145 19.1121 14.8486 19.0659C15.3217 19.0318 15.7772 18.8721 16.1678 18.603C14.5245 14.8072 14.9643 10.0624 15.6124 6.52126Z" fill="#459FF7"/>
<path d="M16.3991 25.5928C18.0656 25.5928 20.2875 25.5465 23.2269 25.4539C26.1663 25.3613 27.6244 24.7364 26.7912 21.9822C25.958 19.2279 24.7313 16.844 22.8334 15.409C20.9355 13.974 19.4311 16.4736 20.8198 18.5798L23.3195 22.3988L16.3991 22.5376C15.5196 21.6813 14.8947 21.1027 14.1309 21.1027C13.5963 21.1142 13.0722 21.2524 12.6015 21.5058C12.1307 21.7593 11.7268 22.1208 11.4229 22.5608C10.6591 23.6949 10.4277 24.4124 11.8627 25.9631C13.2977 27.5138 14.2003 27.7453 16.3991 25.5928Z" fill="#66BCFF"/>
<path d="M23.041 21.959L23.3188 22.3987C24.1057 22.4645 24.8533 22.7809 25.4481 23.3014L25.587 23.3477C25.6194 23.3458 25.6518 23.3366 25.6795 23.3206C25.7073 23.3044 25.7305 23.2822 25.749 23.2551C25.7652 23.2345 25.7791 23.2107 25.786 23.1847C25.793 23.1591 25.7953 23.132 25.7906 23.1056C25.786 23.0792 25.7744 23.054 25.7606 23.032C25.7444 23.0098 25.7258 22.9913 25.7027 22.9774C24.9597 22.339 24.02 21.9789 23.041 21.959Z" fill="#272727"/>
<path d="M17.5359 14.2748C17.5086 14.2748 17.4815 14.2694 17.4563 14.2589C17.4308 14.2485 17.4079 14.2331 17.3887 14.2138C17.3692 14.1944 17.354 14.1715 17.3433 14.1462C17.3329 14.1209 17.3276 14.0939 17.3276 14.0665C17.3243 14.0403 17.3267 14.0137 17.3345 13.9885C17.3422 13.9633 17.3554 13.9401 17.3729 13.9203C17.3905 13.9006 17.4121 13.8849 17.4361 13.8741C17.4602 13.8634 17.4864 13.858 17.5127 13.8582C18.6237 13.7888 19.156 13.4416 19.8735 12.3075C19.8853 12.2827 19.9022 12.2609 19.9235 12.2435C19.9446 12.2262 19.9694 12.2137 19.996 12.2071C20.0226 12.2004 20.0504 12.1998 20.0772 12.2051C20.1041 12.2105 20.1293 12.2217 20.1513 12.238C20.1962 12.2667 20.2283 12.3114 20.2413 12.3631C20.2543 12.4148 20.2469 12.4694 20.2207 12.5158C19.5264 13.6036 18.9477 14.1822 17.5359 14.2748Z" fill="#459FF7"/>
<path d="M18.0664 4.1837C18.1127 5.08636 18.1127 5.94272 18.1358 6.56764C19.594 4.06797 19.6403 3.16532 19.5477 2.91072C19.4551 2.65613 19.1079 2.67927 18.5987 3.39677L18.0664 4.1837Z" fill="#EB459F"/>
</svg>
