<svg width="16" height="16" viewBox="0 0 16 16" fill="none" stroke='currentColor' xmlns="http://www.w3.org/2000/svg">
<g clip-path="url(#clip0_1_8049)">
<path d="M14.6673 4.49999C14.9435 4.49999 15.1673 4.27613 15.1673 3.99999C15.1673 3.72385 14.9435 3.49999 14.6673 3.49999V4.49999ZM9.33398 3.49999C9.05785 3.49999 8.83398 3.72385 8.83398 3.99999C8.83398 4.27613 9.05785 4.49999 9.33398 4.49999V3.49999ZM12.5007 1.33333C12.5007 1.05719 12.2768 0.833328 12.0007 0.833328C11.7245 0.833328 11.5007 1.05719 11.5007 1.33333H12.5007ZM11.5007 6.66666C11.5007 6.94279 11.7245 7.16666 12.0007 7.16666C12.2768 7.16666 12.5007 6.94279 12.5007 6.66666H11.5007ZM14.6673 3.49999H12.0007V4.49999H14.6673V3.49999ZM12.0007 3.49999H9.33398V4.49999H12.0007V3.49999ZM11.5007 1.33333V3.99999H12.5007V1.33333H11.5007ZM11.5007 3.99999V6.66666H12.5007V3.99999H11.5007Z" fill="#FEFDFF"/>
<path d="M7.66732 2C4.68176 2 3.18898 2 2.26148 2.92749C1.33398 3.85499 1.33398 5.34777 1.33398 8.33333C1.33398 11.3189 1.33398 12.8117 2.26148 13.7392C3.18898 14.6667 4.68176 14.6667 7.66732 14.6667C10.6529 14.6667 12.1457 14.6667 13.0732 13.7392C14.0007 12.8117 14.0007 11.3189 14.0007 8.33333V8"  stroke-width="1.5" stroke-linecap="round"/>
<path d="M1.33398 9.4236C1.74666 9.36366 2.16388 9.33406 2.58179 9.33513C4.34975 9.29773 6.07441 9.8486 7.44805 10.8895C8.72198 11.8547 9.61712 13.1833 10.0007 14.6667"  stroke-width="1.5" stroke-linejoin="round"/>
<path d="M14 11.2641C13.2164 10.8673 12.4059 10.6659 11.5908 10.6667C10.3563 10.6619 9.13433 11.1155 8 12"  stroke-width="1.5" stroke-linejoin="round"/>
</g>
<defs>
<clipPath id="clip0_1_8049">
<rect width="16" height="16" fill="white"/>
</clipPath>
</defs>
</svg>
