<svg width="179" height="220" viewBox="0 0 179 220" fill="none" xmlns="http://www.w3.org/2000/svg">
<path d="M70.202 179.89C65.4127 193.825 57.0312 220.494 57.0312 220.494H94.8666C103.248 190.462 105.642 177.249 105.642 177.249L70.202 179.89Z" fill="#FF78B9"/>
<path d="M160.716 219.776C163.212 217.276 166.131 215.241 169.337 213.768L157.603 211.606C151.377 210.644 149.941 209.443 147.306 207.041C128.628 191.423 115.697 196.23 80.7353 203.675C48.8868 195.508 25.4195 188.299 14.1647 193.346C2.9099 198.392 7.69922 220.977 14.1647 246.685C20.6302 272.393 27.0956 296.178 27.0956 296.178H142.517C143.954 282.243 141.32 257.496 138.686 240.198L151.617 243.322C151.617 234.672 153.293 226.742 160.716 219.776Z" fill="#3442D9"/>
<path d="M36.2012 192.863C48.1743 195.268 53.2031 208.482 57.0346 220.494C60.8662 232.51 73.3182 242.36 91.9962 237.553C110.674 232.749 128.634 221.455 112.111 197.431C103.73 198.392 93.9118 200.794 80.7414 203.678C63.0212 199.11 47.9349 194.786 36.2012 192.863Z" fill="white"/>
<path d="M60.8608 215.93C69.7212 233.95 86.9625 236.834 103.007 227.224C119.051 217.613 110.669 200.554 109.233 197.67C101.57 199.11 92.4702 199.832 80.7365 202.234C65.8896 198.392 52.7193 196.226 41.9434 194.064C47.2116 195.268 52.9587 199.832 60.8608 215.93Z" fill="#FF78B9"/>
<path d="M15.3708 192.863C2.91876 196.948 -3.78651 209.443 5.07379 229.625C6.51048 232.51 6.98938 233.71 7.46828 241.877C7.94717 250.047 9.62367 275.276 21.8363 315.881C24.7096 326.21 29.499 324.291 44.8247 322.847C60.1505 321.407 130.074 309.873 130.074 309.873V287.289L50.0929 286.088C45.0642 254.851 40.7537 228.181 37.8804 214.729C35.0066 201.273 29.2595 188.538 15.3708 192.863Z" fill="#FF78B9"/>
<path d="M40.5103 214.73C37.6369 201.513 29.2555 188.539 15.3668 192.864C1.47772 197.189 -3.79051 209.444 5.0698 229.626C6.50649 232.507 6.98539 233.712 7.46428 241.878C8.07596 252.773 9.43645 263.61 11.5353 274.316C11.7689 269.284 13.334 264.405 16.0699 260.185C18.8054 255.962 22.613 252.545 27.1005 250.288L42.9052 242.6C46.7363 240.677 41.9473 221.217 40.5103 214.73Z" fill="#3442D9"/>
<path d="M105.643 177.249L78.3438 179.171L80.0199 181.813L97.9799 208.482C103.967 186.859 105.643 177.249 105.643 177.249Z" fill="black"/>
<path d="M42.5149 99.9728C52.7763 97.3897 59.2926 88.0947 57.0694 79.213C54.8465 70.3328 44.7258 65.2307 34.4644 67.8167C24.2029 70.4028 17.6867 79.6981 19.9095 88.5773C22.1328 97.4586 32.2535 102.56 42.5149 99.9728Z" fill="black"/>
<path d="M20.3926 162.352C23.0265 140.969 33.3235 108.052 40.9862 90.2708C57.7487 51.8292 65.8906 38.8548 76.6665 38.8548C87.4424 38.8548 97.7391 53.5112 113.065 73.9336C128.391 94.356 146.35 124.389 154.971 148.896C160.239 163.553 154.971 168.839 145.871 171.723C136.772 174.604 112.346 179.89 86.4843 183.013C66.5444 185.415 46.4391 186.141 26.3792 185.176C18.4766 184.697 18.2372 177.006 20.3926 162.352Z" fill="#FF78B9"/>
<path d="M88.3984 109.252L94.385 104.688" stroke="black" stroke-width="1.26222" stroke-miterlimit="10" stroke-linecap="round"/>
<path d="M86.4863 108.773L88.1625 101.564" stroke="black" stroke-width="1.26222" stroke-miterlimit="10" stroke-linecap="round"/>
<path d="M51.9944 83.7836C52.2339 82.5827 51.2761 81.6213 49.8394 81.3818C49.5564 81.3818 49.2759 81.4362 49.0147 81.5451C48.7531 81.6539 48.5155 81.8136 48.3156 82.0131C48.1153 82.2163 47.9564 82.4557 47.8483 82.7169C47.7398 82.9781 47.6843 83.2611 47.6843 83.5441C46.966 97.4793 42.6556 105.889 32.8375 111.893C32.1191 113.816 31.6402 115.978 30.9219 117.901C45.05 111.175 51.2761 101.082 51.9944 83.7836Z" fill="black"/>
<path d="M62.2987 82.3444C62.3016 81.7458 62.0825 81.1689 61.6842 80.7227C61.2854 80.2801 60.7362 80.0007 60.1437 79.9409C59.5621 79.9848 59.0118 80.2206 58.5782 80.6102C58.145 81.0021 57.8534 81.5281 57.7489 82.1049C56.7911 101.805 48.8889 112.856 29.9711 120.787C29.5223 122.659 28.9625 124.505 28.2949 126.312C51.2834 117.663 61.1015 104.929 62.2987 82.3444Z" fill="black"/>
<path d="M124.09 107.329C132.95 109.492 136.063 104.928 136.063 104.928" stroke="black" stroke-width="1.26222" stroke-miterlimit="10" stroke-linecap="round"/>
<path d="M109.718 73.213C121.224 73.213 130.551 63.8546 130.551 52.3103C130.551 40.7656 121.224 31.4072 109.718 31.4072C98.2124 31.4072 88.8848 40.7656 88.8848 52.3103C88.8848 63.8546 98.2124 73.213 109.718 73.213Z" fill="black"/>
<path d="M84.0954 51.83C98.2465 51.83 109.718 40.3198 109.718 26.1216C109.718 11.9234 98.2465 0.413208 84.0954 0.413208C69.9444 0.413208 58.4727 11.9234 58.4727 26.1216C58.4727 40.3198 69.9444 51.83 84.0954 51.83Z" fill="black"/>
<path d="M50.5748 71.5317C63.5355 71.5317 74.0422 60.9898 74.0422 47.986C74.0422 34.9818 63.5355 24.4399 50.5748 24.4399C37.6141 24.4399 27.1074 34.9818 27.1074 47.986C27.1074 60.9898 37.6141 71.5317 50.5748 71.5317Z" fill="black"/>
<path d="M43.1417 89.5529L67.8063 74.6548L109.713 69.3688V43.4203L71.3984 32.8486L48.8888 50.8686L38.5918 85.9466L43.1417 89.5529Z" fill="black"/>
<path d="M115.704 52.3096C113.549 58.0759 110.436 65.0435 102.055 68.1672" stroke="#0E156E" stroke-width="1.26222" stroke-miterlimit="10" stroke-linecap="round"/>
<path d="M89.1142 28.043C95.5797 38.8548 94.8614 57.115 81.4512 71.5308" stroke="#0E156E" stroke-width="1.26222" stroke-miterlimit="10" stroke-linecap="round"/>
<path d="M130.066 134.961C123.361 136.161 120.727 129.675 119.29 122.709C117.853 115.739 116.177 103.245 118.332 101.325C120.487 99.4026 123.361 101.804 127.192 109.253C131.024 116.701 139.884 133.52 130.066 134.961Z" fill="white"/>
<path d="M85.285 141.687C94.1453 142.891 99.4132 135.2 99.1737 128.234C98.348 121.105 95.525 114.357 91.0321 108.773C87.6795 105.167 80.4957 104.928 76.6645 114.299C72.833 123.67 68.5225 139.524 85.285 141.687Z" fill="white"/>
<path d="M105.396 157.784C104.782 156.503 104.484 155.092 104.525 153.673C104.567 152.251 104.948 150.858 105.636 149.617C108.51 144.331 112.58 141.447 117.37 141.686C122.159 141.93 125.272 145.532 122.159 152.741C128.145 158.506 125.272 163.313 119.285 164.753C113.299 166.194 108.749 165.232 105.396 157.784Z" fill="#EB459F"/>
<path d="M34.283 107.812C38.8328 95.557 51.2849 88.1087 63.258 82.3438C75.2311 76.5767 108.756 66.9662 117.856 80.421C119.053 79.7001 118.574 78.739 117.856 76.8169C116.506 74.3887 114.986 72.0602 113.306 69.8493C105.164 59.758 75.9495 64.083 60.3843 72.9727C44.8194 81.8613 40.0301 89.3096 37.1563 96.279C34.283 103.245 32.367 106.368 34.283 107.812Z" fill="#312CC7"/>
<path d="M118.332 148.417C117.694 149.824 116.691 151.036 115.428 151.925C114.164 152.81 112.686 153.344 111.148 153.46" stroke="black" stroke-width="1.26222" stroke-miterlimit="10" stroke-linecap="round"/>
<path d="M118.098 154.903L115.703 151.779" stroke="black" stroke-width="1.26222" stroke-miterlimit="10" stroke-linecap="round"/>
<path d="M96.4286 131.797C97.2362 127.628 95.8913 123.859 93.4246 123.376C90.9579 122.898 88.3037 125.887 87.4961 130.056C86.6889 134.221 88.0338 137.99 90.5004 138.473C92.9671 138.955 95.621 135.966 96.4286 131.797Z" fill="black"/>
<path d="M131.375 132.301C133.277 131.735 133.997 128.492 132.983 125.056C131.968 121.624 129.604 119.295 127.702 119.861C125.8 120.427 125.08 123.67 126.094 127.106C127.108 130.541 129.473 132.867 131.375 132.301Z" fill="black"/>
<path d="M118.331 101.325C117.373 102.283 117.134 105.407 117.373 109.252C119.85 107.671 122.619 106.608 125.515 106.129C122.642 101.325 120.247 99.8813 118.331 101.325Z" fill="#D11583"/>
<path d="M134.86 99.1627C134.676 101.368 133.655 103.426 132.007 104.899C130.358 106.375 128.207 107.159 125.999 107.09H125.52C122.577 107.38 119.765 108.461 117.379 110.214V108.051C119.678 106.509 122.3 105.523 125.042 105.167H125.281C128.873 104.928 132.225 103.966 132.944 98.9196C132.896 98.7672 132.901 98.6003 132.958 98.4479C133.016 98.2992 133.122 98.1722 133.26 98.0887C133.398 98.0053 133.56 97.969 133.72 97.9908C133.88 98.0126 134.028 98.0851 134.141 98.2012C134.62 98.2012 134.86 98.6801 134.86 99.1627Z" fill="black"/>
<path d="M124.797 106.128C127.671 103.487 127.431 101.324 126.952 98.2007" stroke="black" stroke-width="1.26222" stroke-miterlimit="10" stroke-linecap="round"/>
<path d="M92.4785 110.214L91.0418 108.774C88.1681 105.407 81.9421 104.928 77.8711 111.894L92.4785 110.214Z" fill="#D11583"/>
<path opacity="0.3" d="M70.1762 159.725C72.4049 157.849 71.7308 153.361 68.6706 149.701C65.6104 146.04 61.3224 144.596 59.0937 146.472C56.8647 148.347 57.5388 152.835 60.5994 156.496C63.6596 160.156 67.9475 161.6 70.1762 159.725Z" fill="#FF0077"/>
<path opacity="0.3" d="M145.635 127.033C143.959 127.994 142.762 131.357 143.001 135.199C143.241 139.045 145.156 143.848 147.312 143.848C149.467 143.848 150.424 141.686 150.903 138.562C151.382 135.442 147.551 130.875 145.635 127.033Z" fill="#FF0077"/>
</svg>
