<svg width="236" height="208" viewBox="0 0 236 208" fill="none" xmlns="http://www.w3.org/2000/svg">
<path d="M199.229 274.528C198.062 276.017 203.737 285.361 206.391 289.546C202.35 292.699 197.979 295.787 193.386 298.589L164.565 256.382L114.669 211.896C155.336 202.702 172.553 200.887 179.431 202.4C187.812 204.265 192.073 209.077 210.642 236.864C220.019 250.884 227.438 262.539 230.414 267.24C227.02 270.977 221.117 277.135 213.569 283.67C209.424 280.25 200.383 273.07 199.229 274.528Z" fill="url(#paint0_linear_1_8125)"/>
<path d="M93.8482 137.467C102.856 137.247 117.459 146.564 129.178 160.257C138.962 152.145 151.022 144.548 155.468 140.76C156.789 139.637 158.609 139.309 160.231 139.922C164.189 141.416 171.526 144.614 175.15 148.902C181.91 156.897 184.441 163.902 181.809 166.338C156.262 189.99 124.072 210.133 124.072 210.133L89.2263 147.468L93.8482 137.467Z" fill="#0C1AAD"/>
<path d="M152.3 140.011C151.272 148.402 153.193 150.578 156.725 152.76C160.156 154.879 158.945 154.826 161.279 155.189C163.075 164.325 168.844 169.751 175.472 168.501C183.589 166.969 188.025 160.953 191.418 155.794L152.3 140.011Z" fill="#FF78B9"/>
<path d="M169.405 205.923C163.901 200.637 146.455 197.763 126.192 198.088L48.4417 217.14C41.4671 228.071 38.3742 238.025 45.4572 247.475L116.799 248.535C115.787 265.222 116.392 288.327 116.559 294.167C119.848 294.897 124.843 295.412 131.081 295.543C131.66 289.972 133.306 276.222 135.384 275.716C137.478 275.209 140.569 289.748 141.703 295.42C149.703 295.078 158.862 294.157 168.548 292.413C169.377 287.997 171.77 274.065 173.28 254.339C176.06 217.777 175.317 211.617 169.405 205.923Z" fill="#3F99F2"/>
<path d="M41.8379 209.138C41.8379 209.138 43.9864 220.103 46.9317 220.3C49.1784 220.451 56.9759 220.073 70.0106 216.029C82.2373 212.234 93.233 207.265 93.233 207.265L80.4965 199.248L41.8379 209.138Z" fill="black"/>
<path d="M94.0829 122.429C107.069 129.623 122.056 146.803 129.049 169.18L87.2899 200.747C87.2899 200.747 56.3267 211.535 46.5355 212.336C39.9691 212.872 32.7493 214.734 30.952 203.345C30.0835 197.851 28.5391 177.695 35.1471 162.387C44.0169 141.834 61.919 125.824 61.919 125.824L94.0829 122.429Z" fill="#FFE75C"/>
<path d="M41.708 99.2386C33.863 102.127 34.0682 107.442 39.2494 117.165C44.4307 126.889 48.5105 134.615 48.5105 134.615C48.5105 134.615 68.1047 128.758 86.9751 136.822C99.2159 142.053 104.476 143.212 102.007 136.532C99.3563 129.366 92.9781 124.478 92.9781 124.478C92.9781 124.478 101.532 107.02 97.2741 102.012C94.2062 98.4011 88.3759 97.5039 88.3759 97.5039L41.708 99.2386Z" fill="#0C1AAD"/>
<path d="M122.661 191.146C121.141 181.164 124.501 175.572 132.545 170.706C141.993 164.991 152.563 166.811 159.072 176.033C165.581 185.255 171.105 193.125 165.253 204.144C159.402 215.164 153.605 221.892 139.612 218.861C125.619 215.83 126.409 210.076 126.409 210.076L122.661 191.146Z" fill="#FF78B9"/>
<path d="M30.6948 170.406C28.5953 179.183 30.5293 197.386 40.5325 207.952C50.5356 218.517 58.2784 209.042 58.2784 209.042C58.2784 209.042 60.399 212.146 62.9757 215.946C66.4617 221.083 71.4998 227.078 79.2668 228.661C87.7751 230.397 127.665 220.469 129.823 219.895C136.384 218.148 136.199 207.858 130.474 194.327C125.724 183.103 122.733 182.907 121.682 182.986C120.63 183.066 94.8446 189.667 94.8446 189.667C94.8446 189.667 84.4792 162.349 68.2701 152.271C52.061 142.193 37.1648 143.343 30.6948 170.406Z" fill="#0C1AAD"/>
<path d="M58.2721 209.046C53.4702 201.642 46.9517 190.288 46.882 190.166C46.3874 189.3 45.2825 188.998 44.424 189.496C43.5617 189.991 43.2627 191.096 43.7574 191.958C43.8271 192.08 50.646 203.964 55.5334 211.445C57.2321 210.202 58.2489 209.072 58.2721 209.046Z" fill="black"/>
<path d="M92.3914 42.1552C94.8321 40.71 97.2074 39.0664 97.2074 39.0664" stroke="black" stroke-width="1.46403" stroke-linecap="round" stroke-linejoin="round"/>
<path d="M90.5814 42.5595C92.0638 40.1394 93.3957 37.5786 93.3957 37.5786" stroke="black" stroke-width="1.46403" stroke-linecap="round" stroke-linejoin="round"/>
<path d="M42.9136 29.8116C43.0281 22.7845 45.6086 13.1025 51.1738 5.08323C53.8577 1.21472 56.212 0.153279 58.3399 1.99201C60.25 3.64147 61.1829 7.85119 61.2969 12.3863C61.5008 20.4708 60.4082 25.5172 60.4082 25.5172C68.4383 29.2897 72.1003 33.7083 69.7022 39.6984C67.3041 45.6886 52.815 42.1129 47.731 40.2849C42.647 38.4569 42.8026 36.6115 42.9136 29.8116Z" fill="#8CD9FF"/>
<path d="M55.4733 16.8112C55.4733 16.8112 49.9688 28.3966 47.5455 33.5979C52.4369 32.0895 58.7498 32.1422 58.7498 32.1422" stroke="#66BCFF" stroke-width="1.46403" stroke-linecap="round" stroke-linejoin="round"/>
<path d="M35.9172 30.6509C37.4649 28.451 39.7743 27.77 42.3029 28.0495C44.626 28.3054 47.938 29.7851 50.436 35.1061C52.6626 39.8473 50.3304 44.6091 46.4234 46.2903C42.5165 47.9715 39.0427 44.3525 36.9923 40.2488C34.9419 36.1451 34.8666 32.145 35.9172 30.6509Z" fill="#66BCFF"/>
<path d="M90.9302 46.9862C85.6343 44.2867 84.5591 40.9859 88.8265 39.94C92.8569 38.9516 99.667 40.5066 103.855 43.134C107.683 45.5353 108.198 48.1556 105.168 49.2078C101.988 50.3128 95.7265 49.4318 90.9302 46.9862Z" fill="white"/>
<path d="M98.1124 46.0584C95.4554 44.2542 95.0364 42.1746 97.3155 41.6258C99.4688 41.1084 102.969 42.2369 105.05 43.9731C106.949 45.5566 107.105 47.1994 105.471 47.7829C103.759 48.393 100.517 47.6942 98.1124 46.0584Z" fill="black"/>
<path d="M21.8636 53.43C27.6755 55.8674 43.6398 46.7074 42.4655 40.8678C41.846 37.794 40.3921 33.4159 39.0969 31.5267C37.2716 28.8579 34.9737 25.8803 21.4663 21.0503C9.90684 16.914 5.08105 20.1925 4.59308 23.8237C4.02574 28.0425 8.75377 33.7072 13.636 39.7873C12.1352 47.4976 14.9099 50.512 21.8636 53.43Z" fill="#8CD9FF"/>
<path d="M17.8496 28.7026C17.8496 28.7026 30.956 33.9472 35.8804 37.2688C31.3377 38.7836 25.2607 41.2973 25.2607 41.2973" stroke="#66BCFF" stroke-width="1.46403" stroke-linecap="round" stroke-linejoin="round"/>
<path d="M41.1119 103.338C42.8043 105.25 45.178 106.456 47.7208 106.689C75.1099 109.21 91.3693 110.392 92.8759 103.018C93.6005 99.4623 96.648 90.4095 98.565 85.5253C112.25 83.5176 130.469 82.3878 136.821 72.635C141.809 64.9756 132.72 60.3759 123.598 59.8093C138.5 47.1623 145.363 36.3759 136.553 31.4601C127.632 26.4834 116.436 35.4081 101.636 46.899C73.0607 30.3309 49.2571 31.131 27.5927 47.895C22.7727 44.8674 16.8699 43.5448 11.6911 44.7762C3.20579 46.7951 -1.88401 56.1835 4.295 62.8859C17.737 77.4619 26.0301 86.3108 41.1119 103.338Z" fill="#FF78B9"/>
<path d="M57.9725 49.0842C54.5863 48.6881 51.8125 48.4968 51.8125 48.4968" stroke="black" stroke-width="1.46403" stroke-linecap="round" stroke-linejoin="round"/>
<path d="M59.9867 51.1592C56.7292 52.0594 54.0899 52.9172 54.0899 52.9172" stroke="black" stroke-width="1.46403" stroke-linecap="round" stroke-linejoin="round"/>
<path d="M62.4692 52.837C59.5397 54.4407 57.2022 55.853 57.2022 55.853" stroke="black" stroke-width="1.46403" stroke-linecap="round" stroke-linejoin="round"/>
<path d="M109.017 58.275C123.074 47.4801 127.802 42.0169 132.702 40.6539C134.685 40.1003 135.851 40.5726 135.966 41.582C136.343 44.9179 127.261 53.5378 118.082 61.2909C128.238 62.6085 134.045 64.5021 131.745 68.4265C128.915 73.2533 114.002 75.3488 94.2761 76.7079C74.5427 78.0677 59.0491 75.5421 43.9291 70.4333C63.8286 75.8303 86.6737 75.4288 109.017 58.275Z" fill="black"/>
<path d="M35.8415 76.1652C35.4094 80.0292 39.3544 81.2388 44.4698 79.141C49.414 77.1133 54.0176 72.5732 54.9539 68.7426C55.9441 64.6903 52.5324 62.7751 47.0939 64.7532C41.4431 66.8094 36.3028 72.0592 35.8415 76.1652Z" fill="#EB459F"/>
<path d="M73.5892 58.4767C79.7243 59.1577 84.897 58.0559 91.6001 54.0625C84.866 48.6105 77.6882 44.193 71.2504 42.7186C63.422 40.9194 56.2836 43.5862 56.6536 48.5355C57.0464 53.5623 64.4898 57.4829 73.5892 58.4767Z" fill="white"/>
<path d="M104.162 64.2061C117.182 64.4083 117.978 67.1904 116.187 68.6774C113.105 71.2335 105.092 71.8851 92.6215 69.9244C96.4898 68.4513 100.344 66.5698 104.162 64.2061Z" fill="#D11583"/>
<path d="M85.0257 57.2188C82.3358 56.7649 79.388 55.4336 77.2917 53.5433C74.0865 50.6514 74.0969 47.5843 77.313 46.6882C77.5569 46.6222 77.8098 46.5706 78.0755 46.5328C79.5199 46.3286 80.9925 46.7137 82.2469 47.4619C85.3806 49.3288 88.5337 51.5809 91.5956 54.0621C89.2527 55.4596 87.1002 56.4816 85.0257 57.2188Z" fill="black"/>
<path d="M155.816 148.602C151.724 144.319 151.037 139.243 154.655 129.74C158.273 120.237 162.999 109.128 179.665 116.217C196.331 123.306 202.156 126.692 196.8 142.461C191.444 158.229 190.315 160.171 179.808 161.858C173.738 162.83 168.485 158.893 163.967 155.238C165.074 152.625 164.197 150.632 162.74 149.254C161.744 148.31 159.067 147.808 158.058 149.409C157.39 148.713 156.327 149.138 155.816 148.602Z" fill="#FF78B9"/>
<path d="M26.8858 46.9139C29.6814 49.1232 30.7212 50.9246 31.7122 50.9745C32.7031 51.0245 34.8393 51.5435 42.0963 39.2842C36.7763 40.3885 30.567 43.3363 26.8858 46.9139Z" fill="#8CD9FF"/>
<path d="M186.912 129.279C182.163 126.703 177.381 124.173 172.429 121.889C169.947 120.757 167.433 119.641 164.739 118.866C162.739 118.29 160.746 118.224 160.051 119.051C159.482 119.726 158.996 120.483 158.527 121.259C158.978 121.121 159.561 121.056 160.25 121.114C161.35 121.18 162.58 121.537 163.776 121.889C166.193 122.677 168.612 123.737 171 124.879C175.773 127.181 180.467 129.777 185.133 132.417L185.173 132.439C185.18 132.443 185.187 132.447 185.195 132.452C186.069 132.927 187.164 132.598 187.639 131.724C188.114 130.85 187.786 129.755 186.912 129.279Z" fill="#EB459F"/>
<path d="M182.484 141.217C177.744 138.626 172.971 136.077 168.024 133.775C165.546 132.632 163.018 131.561 160.335 130.726C158.966 130.348 157.602 129.956 156.064 129.87C155.589 129.844 154.577 129.931 154.463 130.242C153.968 131.558 153.689 132.433 153.355 133.589L153.359 133.589L153.412 133.539C153.818 133.156 154.701 132.955 155.822 133.052C156.923 133.117 158.153 133.475 159.349 133.826C161.766 134.614 164.185 135.675 166.572 136.817C171.345 139.119 176.04 141.715 180.705 144.355L180.742 144.372C180.745 144.376 180.753 144.377 180.756 144.381C181.63 144.86 182.721 144.539 183.2 143.665C183.679 142.791 183.358 141.696 182.484 141.217Z" fill="#EB459F"/>
<defs>
<linearGradient id="paint0_linear_1_8125" x1="158.554" y1="225.698" x2="217.651" y2="279.415" gradientUnits="userSpaceOnUse">
<stop stop-color="#66BCFF"/>
<stop offset="0.5" stop-color="#53ABF9"/>
<stop offset="1" stop-color="#3F99F2"/>
</linearGradient>
</defs>
</svg>
