<svg width="27" height="27" viewBox="0 0 27 27" fill="none" xmlns="http://www.w3.org/2000/svg">
<path d="M16.7718 1.21941C17.3564 0.400673 18.648 0.860639 18.5835 1.86462L18.1566 8.51362C18.122 9.05218 18.521 9.52103 19.0581 9.57304L25.6898 10.2151C26.6912 10.3121 26.9386 11.6606 26.0369 12.1068L20.0652 15.0615C19.5815 15.3008 19.375 15.8808 19.5985 16.372L22.3583 22.4362C22.775 23.3519 21.7309 24.2405 20.8936 23.6827L15.3489 19.9884C14.8998 19.6892 14.2943 19.8003 13.9807 20.2395L10.1087 25.6616C9.5241 26.4804 8.23252 26.0204 8.29699 25.0164L8.72395 18.3674C8.75854 17.8289 8.35955 17.36 7.82238 17.308L1.19071 16.6659C0.189337 16.569 -0.0581076 15.2204 0.843604 14.7743L6.81528 11.8195C7.29898 11.5802 7.50553 11.0002 7.28199 10.509L4.52222 4.44479C4.1055 3.5291 5.14963 2.64055 5.98687 3.19838L11.5316 6.89263C11.9807 7.19186 12.5862 7.08075 12.8999 6.64156L16.7718 1.21941Z" fill="#3772FF" fill-opacity="0.61"/>
</svg>
