<svg width="12" height="12" viewBox="0 0 12 12" fill="none" xmlns="http://www.w3.org/2000/svg">
<path d="M8.83006 11.335C8.56506 11.335 8.22506 11.25 7.80006 11L6.30506 10.115C6.15006 10.025 5.85006 10.025 5.70006 10.115L4.20006 11C3.31506 11.525 2.79506 11.315 2.56006 11.145C2.33006 10.975 1.97006 10.54 2.20506 9.54003L2.56006 8.00503C2.60006 7.84503 2.52006 7.57003 2.40006 7.45003L1.16006 6.21003C0.540059 5.59003 0.590059 5.06003 0.675059 4.80003C0.760059 4.54003 1.03006 4.08003 1.89006 3.93503L3.48506 3.67003C3.63506 3.64503 3.85006 3.48503 3.91506 3.35003L4.80006 1.58503C5.20006 0.780034 5.72506 0.660034 6.00006 0.660034C6.27506 0.660034 6.80006 0.780034 7.20006 1.58503L8.08006 3.34503C8.15006 3.48003 8.36506 3.64003 8.51506 3.66503L10.1101 3.93003C10.9751 4.07503 11.2451 4.53503 11.3251 4.79503C11.4051 5.05503 11.4551 5.58503 10.8401 6.20503L9.60006 7.45003C9.48006 7.57003 9.40506 7.84003 9.44006 8.00503L9.79506 9.54003C10.0251 10.54 9.67006 10.975 9.44006 11.145C9.31506 11.235 9.11506 11.335 8.83006 11.335ZM6.00006 9.29503C6.24506 9.29503 6.49006 9.35503 6.68506 9.47003L8.18006 10.355C8.61506 10.615 8.89006 10.615 8.99506 10.54C9.10006 10.465 9.17506 10.2 9.06506 9.71003L8.71006 8.17503C8.61506 7.76003 8.77006 7.22503 9.07006 6.92003L10.3101 5.68003C10.5551 5.43503 10.6651 5.19503 10.6151 5.03003C10.5601 4.86503 10.3301 4.73003 9.99006 4.67503L8.39506 4.41003C8.01006 4.34503 7.59006 4.03503 7.41506 3.68503L6.53506 1.92503C6.37506 1.60503 6.17506 1.41503 6.00006 1.41503C5.82506 1.41503 5.62506 1.60503 5.47006 1.92503L4.58506 3.68503C4.41006 4.03503 3.99006 4.34503 3.60506 4.41003L2.01506 4.67503C1.67506 4.73003 1.44506 4.86503 1.39006 5.03003C1.33506 5.19503 1.45006 5.44003 1.69506 5.68003L2.93506 6.92003C3.23506 7.22003 3.39006 7.76003 3.29506 8.17503L2.94006 9.71003C2.82506 10.205 2.90506 10.465 3.01006 10.54C3.11506 10.615 3.38506 10.61 3.82506 10.355L5.32006 9.47003C5.51006 9.35503 5.75506 9.29503 6.00006 9.29503Z" fill="#D7DB00"/>
</svg>
