<svg width="24" height="25" viewBox="0 0 24 25" fill="none" xmlns="http://www.w3.org/2000/svg">
<path d="M7.77079 1.83187C7.64698 0.749906 9.09678 0.277546 9.63411 1.22478L11.5732 4.64318C11.9415 5.29242 12.8655 5.32394 13.2772 4.70131L15.4448 1.423C16.0454 0.514585 17.4596 1.08465 17.2624 2.15566L16.5505 6.02075C16.4153 6.75483 17.1029 7.37291 17.8185 7.16056L21.5862 6.04252C22.6302 5.73271 23.3471 7.07846 22.5076 7.77211L19.4779 10.2754C18.9024 10.7508 19.0318 11.6662 19.7165 11.9635L23.3214 13.5289C24.3203 13.9627 24.0045 15.4544 22.9155 15.4461L18.9855 15.4163C18.2391 15.4106 17.7498 16.195 18.0832 16.8629L19.8385 20.3792C20.3249 21.3535 19.1241 22.2933 18.2952 21.5869L15.3039 19.0379C14.7357 18.5538 13.8567 18.8402 13.6828 19.5661L12.7672 23.388C12.5135 24.4471 10.9895 24.3951 10.8086 23.3212L10.1556 19.4458C10.0316 18.7097 9.17407 18.3641 8.57427 18.8084L5.41617 21.1476C4.54107 21.7958 3.40709 20.7764 3.95876 19.8375L5.94962 16.4489C6.32774 15.8054 5.89304 14.9894 5.14798 14.9442L1.2251 14.7062C0.138074 14.6402 -0.0753544 13.1304 0.950796 12.7658L4.65399 11.4497C5.35732 11.1997 5.54881 10.2953 5.00712 9.78172L2.15501 7.07781C1.36469 6.32856 2.17168 5.0348 3.19216 5.41504L6.87493 6.78724C7.57437 7.04786 8.30245 6.47807 8.2176 5.73649L7.77079 1.83187Z" fill="#3772FF"/>
</svg>
