<svg width="20" height="20" viewBox="0 0 20 20" fill="none" xmlns="http://www.w3.org/2000/svg">
<path d="M9.56127 14.4215C12.0722 11.7349 14.4962 9.91243 17.5411 7.33148C18.4524 6.55894 18.5932 5.20483 17.8783 4.24545C17.1184 3.22583 15.6746 3.02203 14.6973 3.83262C11.9083 6.14602 9.73835 8.37351 7.68001 10.7543C7.572 10.8792 7.51799 10.9417 7.46194 10.9768C7.31979 11.066 7.14217 11.0669 6.9991 10.9793C6.94267 10.9447 6.88857 10.8834 6.78037 10.7609L5.68354 9.51909C4.68277 8.38593 2.88775 8.51143 2.05217 9.77284C1.46744 10.6556 1.55409 11.8254 2.26241 12.6112L3.98235 14.5191C5.2688 15.9461 5.91202 16.6597 6.68422 16.6666C7.45642 16.6736 8.15804 15.9229 9.56127 14.4215Z" stroke="#FEFDFF" stroke-width="1.5"/>
</svg>
