<svg width="48" height="48" viewBox="0 0 48 48" fill="none" xmlns="http://www.w3.org/2000/svg">
<path d="M24 4C35.0474 4 44 12.9556 44 24C44 35.0444 35.0474 44 24 44" stroke="#FEFDFF" stroke-width="1.5" stroke-linecap="round" stroke-linejoin="round"/>
<path d="M18 43C15.6233 42.1906 13.3906 41.0214 11.446 39.4924M11.446 8.5077C13.3906 7.00118 15.6233 5.80946 18 5M4 20.4922C4.43214 18.1763 5.32038 15.9277 6.59276 13.8816M4 27.5078C4.43214 29.8238 5.32038 32.0722 6.59276 34.1184" stroke="#FEFDFF" stroke-width="1.5" stroke-linecap="round" stroke-linejoin="round"/>
<path d="M16 33C20.1452 28.604 27.8102 28.3972 32 33M28.4358 19.5C28.4358 21.9852 26.443 24 23.985 24C21.5268 24 19.5342 21.9852 19.5342 19.5C19.5342 17.0147 21.5268 15 23.985 15C26.443 15 28.4358 17.0147 28.4358 19.5Z" stroke="#FEFDFF" stroke-width="1.5" stroke-linecap="round"/>
</svg>
