<svg width="24" height="25" viewBox="0 0 24 25" fill="none" stroke="currentColor" xmlns="http://www.w3.org/2000/svg">
<path d="M20.5 17.4286V10.5C20.5 6.72876 20.5 4.84315 19.3284 3.67157C18.1569 2.5 16.2712 2.5 12.5 2.5H11.5C7.72876 2.5 5.84315 2.5 4.67157 3.67157C3.5 4.84315 3.5 6.72876 3.5 10.5V20" stroke-width="1.5" stroke-linecap="round"/>
<path d="M8 3.5V7.19003C8 7.93013 8 8.30019 8.23811 8.44371C8.24836 8.44989 8.25884 8.45571 8.26951 8.46115C8.51756 8.58746 8.84124 8.39707 9.4886 8.01629C9.97254 7.73164 10.2145 7.58931 10.4815 7.58447C10.4938 7.58425 10.5062 7.58425 10.5185 7.58447C10.7855 7.58931 11.0275 7.73164 11.5114 8.01629C12.1588 8.39707 12.4824 8.58747 12.7305 8.46115C12.7412 8.45571 12.7516 8.44989 12.7619 8.44372C13 8.30019 13 7.93013 13 7.19003V3.5" stroke-width="1.5" stroke-linecap="round" stroke-linejoin="round"/>
<path d="M20.5 17.5H6C4.61929 17.5 3.5 18.6193 3.5 20C3.5 21.3807 4.61929 22.5 6 22.5H20.5" stroke-width="1.5" stroke-linecap="round"/>
<path d="M20.5 17.5C19.1193 17.5 18 18.6193 18 20C18 21.3807 19.1193 22.5 20.5 22.5" stroke-width="1.5" stroke-linecap="round"/>
</svg>
