<svg width="24" height="25" viewBox="0 0 24 25" fill="none" stroke="currentColor" xmlns="http://www.w3.org/2000/svg">
<path d="M10.5 22.5H6.59087C5.04549 22.5 3.81631 21.748 2.71266 20.6966C0.453366 18.5441 4.1628 16.824 5.57757 15.9816C8.12805 14.4629 11.2057 14.1118 14 14.9281" stroke-width="1.5" stroke-linecap="round" stroke-linejoin="round"/>
<path d="M16.5 7C16.5 9.48528 14.4853 11.5 12 11.5C9.51472 11.5 7.5 9.48528 7.5 7C7.5 4.51472 9.51472 2.5 12 2.5C14.4853 2.5 16.5 4.51472 16.5 7Z" stroke-width="1.5"/>
<path d="M18.4332 14.3485C18.7685 13.9851 18.9362 13.8035 19.1143 13.6975C19.5442 13.4418 20.0736 13.4339 20.5107 13.6765C20.6918 13.7771 20.8646 13.9537 21.2103 14.3067C21.5559 14.6598 21.7287 14.8364 21.8272 15.0214C22.0647 15.4679 22.0569 16.0087 21.8066 16.4478C21.7029 16.6298 21.5251 16.8011 21.1694 17.1437L16.9378 21.2194C16.2638 21.8686 15.9268 22.1932 15.5056 22.3577C15.0845 22.5222 14.6214 22.5101 13.6954 22.4859L13.5694 22.4826C13.2875 22.4752 13.1466 22.4715 13.0646 22.3785C12.9827 22.2855 12.9939 22.1419 13.0162 21.8548L13.0284 21.6988C13.0914 20.8906 13.1228 20.4865 13.2807 20.1232C13.4385 19.7599 13.7107 19.465 14.2552 18.875L18.4332 14.3485Z" stroke-width="1.5" stroke-linejoin="round"/>
</svg>
