<svg width="24" height="25" viewBox="0 0 24 25" fill="none" stroke="currentColor" xmlns="http://www.w3.org/2000/svg">
<path d="M11.5 14.5116C9.45338 14.4164 7.38334 14.9064 5.57757 15.9816C4.1628 16.824 0.453366 18.5441 2.71266 20.6966C3.81631 21.748 5.04549 22.5 6.59087 22.5H12" stroke-width="1.5" stroke-linecap="round" stroke-linejoin="round"/>
<path d="M15.5 7C15.5 9.48528 13.4853 11.5 11 11.5C8.51472 11.5 6.5 9.48528 6.5 7C6.5 4.51472 8.51472 2.5 11 2.5C13.4853 2.5 15.5 4.51472 15.5 7Z" stroke-width="1.5"/>
<path d="M18 21.2143V22.5M18 21.2143C16.8432 21.2143 15.8241 20.6461 15.2263 19.7833M18 21.2143C19.1568 21.2143 20.1759 20.6461 20.7737 19.7833M15.2263 19.7833L14.0004 20.5714M15.2263 19.7833C14.8728 19.273 14.6667 18.6597 14.6667 18C14.6667 17.3403 14.8727 16.7271 15.2262 16.2169M20.7737 19.7833L21.9996 20.5714M20.7737 19.7833C21.1272 19.273 21.3333 18.6597 21.3333 18C21.3333 17.3403 21.1273 16.7271 20.7738 16.2169M18 14.7857C19.1569 14.7857 20.1761 15.354 20.7738 16.2169M18 14.7857C16.8431 14.7857 15.8239 15.354 15.2262 16.2169M18 14.7857V13.5M20.7738 16.2169L22 15.4286M15.2262 16.2169L14 15.4286" stroke-width="1.5" stroke-linecap="round"/>
</svg>
